#!OML:ASF H:\Male1\Project 1\Capture day 1\Session 1\Male1.ASF
:FULLY-SPECIFIED
:DEGREES
220
root 5.36522 15.13 2.44384 173.073 -27.1289 -178.414
lowerback 14.4624 2.03249 -1.08618
upperback 9.46229 1.34227 -2.38011
thorax 1.91772 0.178578 -2.06203
lowerneck 10.4819 5.46551 8.08915
upperneck 0.644974 7.94969 -4.06001
head -1.0947 4.00079 -3.02515
rclavicle 5.40694e-014 -4.85035e-014
rhumerus -7.48415 -22.8593 -56.3231
rradius 104.564
rwrist -4.42507
rhand -49.1425 32.8066
rfingers 7.12502
rthumb -21.7658 4.01042
lclavicle 5.40694e-014 -4.85035e-014
lhumerus -10.0219 27.8846 36.0095
lradius 108.808
lwrist -9.63292
lhand -49.8082 8.64158
lfingers 7.12502
lthumb -22.405 37.3622
rfemur -9.63913 2.87768 22.2961
rtibia 34.8372
rfoot -22.5665 -24.5264
rtoes -28.4627
lfemur -7.65068 -6.09088 -16.0178
ltibia 33.6382
lfoot -19.5338 16.8029
ltoes -19.2137
221
root 5.36884 15.1284 2.45004 173.022 -27.0643 -178.32
lowerback 14.5395 2.04804 -0.9878
upperback 9.43097 1.37601 -2.32471
thorax 1.8459 0.20016 -2.06474
lowerneck 10.5054 5.4271 8.12914
upperneck 0.615997 7.90495 -4.12381
head -1.10762 3.98034 -3.05502
rclavicle -1.07344e-014 -2.94201e-014
rhumerus -7.6657 -22.9357 -56.1873
rradius 104.485
rwrist -3.63733
rhand -48.9739 33.3414
rfingers 7.12502
rthumb -21.6039 4.5265
lclavicle -1.07344e-014 -2.94201e-014
lhumerus -10.1573 27.8971 36.1744
lradius 108.675
lwrist -9.58719
lhand -49.497 8.6279
lfingers 7.12502
lthumb -22.1062 37.3842
rfemur -9.67281 2.99674 22.4191
rtibia 34.8447
rfoot -22.6155 -24.5456
rtoes -28.1263
lfemur -7.69698 -6.14523 -15.9168
ltibia 33.6897
lfoot -19.5886 16.8067
ltoes -18.8276
222
root 5.3714 15.1278 2.45604 172.998 -27.0511 -178.278
lowerback 14.5684 2.04167 -0.91108
upperback 9.42224 1.37768 -2.29391
thorax 1.82281 0.204383 -2.07628
lowerneck 10.5567 5.36264 7.99418
upperneck 0.540229 7.81102 -4.01206
head -1.15715 3.92989 -2.99545
rclavicle -6.16232e-014 4.37326e-014
rhumerus -7.84951 -22.9623 -56.0515
rradius 104.384
rwrist -2.97637
rhand -49.0037 33.7028
rfingers 7.12502
rthumb -21.6325 4.89121
lclavicle -6.16232e-014 4.37326e-014
lhumerus -10.3357 27.9578 36.3373
lradius 108.529
lwrist -9.53449
lhand -49.1922 8.44351
lfingers 7.12502
lthumb -21.8136 37.2341
rfemur -9.69081 3.01304 22.4666
rtibia 34.8376
rfoot -22.5929 -24.5367
rtoes -27.9944
lfemur -7.74627 -6.2184 -15.8865
ltibia 33.7369
lfoot -19.6029 16.8759
ltoes -18.7951
223
root 5.37059 15.1281 2.45785 172.995 -27.0278 -178.305
lowerback 14.5549 2.01733 -0.951417
upperback 9.39846 1.34609 -2.26624
thorax 1.8014 0.188039 -2.02022
lowerneck 10.6955 5.28786 7.77236
upperneck 0.462566 7.69896 -3.80486
head -1.23015 3.86707 -2.89164
rclavicle 1.98785e-014 6.67916e-014
rhumerus -7.94375 -22.9373 -56.0315
rradius 104.244
rwrist -2.53018
rhand -48.8773 33.7238
rfingers 7.12502
rthumb -21.5111 4.89833
lclavicle 1.98785e-014 6.67916e-014
lhumerus -10.7081 28.0002 36.3313
lradius 108.381
lwrist -9.40374
lhand -49.3102 9.14309
lfingers 7.12502
lthumb -21.9269 37.9205
rfemur -9.67605 3.02436 22.4386
rtibia 34.8228
rfoot -22.4828 -24.594
rtoes -28.2716
lfemur -7.74784 -6.3078 -15.9481
ltibia 33.7747
lfoot -19.6084 17.0144
ltoes -18.8803
224
root 5.36994 15.1281 2.45708 172.96 -26.9568 -178.27
lowerback 14.539 2.02821 -0.943967
upperback 9.372 1.36709 -2.23391
thorax 1.78135 0.200284 -1.99276
lowerneck 10.8049 5.24045 7.69642
upperneck 0.401512 7.63638 -3.70332
head -1.27994 3.83208 -2.84915
rclavicle 0 -3.18055e-014
rhumerus -8.07634 -23.0181 -56.0055
rradius 104.131
rwrist -2.30234
rhand -48.3863 33.6659
rfingers 7.12502
rthumb -21.0395 4.78721
lclavicle 0 -3.18055e-014
lhumerus -10.9866 27.9714 36.2885
lradius 108.172
lwrist -9.2485
lhand -49.3985 9.61369
lfingers 7.12502
lthumb -22.0117 38.3811
rfemur -9.64368 3.12577 22.4937
rtibia 34.7971
rfoot -22.3875 -24.6963
rtoes -28.5581
lfemur -7.72968 -6.36558 -15.9338
ltibia 33.7996
lfoot -19.6469 17.1207
ltoes -18.7607
225
root 5.37174 15.128 2.4573 172.915 -26.9346 -178.24
lowerback 14.5289 2.0597 -0.86193
upperback 9.37972 1.41747 -2.24957
thorax 1.79955 0.229199 -2.06154
lowerneck 10.7631 5.21484 7.8387
upperneck 0.435509 7.61524 -3.7412
head -1.25639 3.82265 -2.88403
rclavicle 1.55052e-014 4.53229e-014
rhumerus -8.32537 -23.1467 -55.8625
rradius 104.118
rwrist -2.2722
rhand -47.9696 33.551
rfingers 7.12502
rthumb -20.6392 4.62832
lclavicle 1.55052e-014 4.53229e-014
lhumerus -11.0652 27.907 36.3282
lradius 107.991
lwrist -9.08136
lhand -49.3058 8.90785
lfingers 7.12502
lthumb -21.9227 37.6858
rfemur -9.60163 3.21867 22.541
rtibia 34.7716
rfoot -22.4613 -24.6815
rtoes -28.3004
lfemur -7.71236 -6.372 -15.9044
ltibia 33.8132
lfoot -19.5915 17.1862
ltoes -18.9254
226
root 5.37366 15.1273 2.45795 172.879 -26.9725 -178.198
lowerback 14.4567 2.06185 -0.765507
upperback 9.43163 1.4283 -2.27474
thorax 1.8975 0.237472 -2.14231
lowerneck 10.5698 5.20457 8.07701
upperneck 0.548229 7.61336 -3.86282
head -1.17261 3.82619 -2.95578
rclavicle -5.08889e-014 -3.97569e-015
rhumerus -8.48194 -23.2989 -55.8289
rradius 104.092
rwrist -2.2552
rhand -48.0728 33.2304
rfingers 7.12502
rthumb -20.7383 4.31851
lclavicle -5.08889e-014 -3.97569e-015
lhumerus -10.9866 27.8892 36.3674
lradius 107.778
lwrist -8.88973
lhand -49.2599 8.9239
lfingers 7.12502
lthumb -21.8786 37.707
rfemur -9.58277 3.22388 22.5848
rtibia 34.7704
rfoot -22.5861 -24.649
rtoes -28.034
lfemur -7.69474 -6.37086 -15.8663
ltibia 33.806
lfoot -19.4657 17.2399
ltoes -19.324
227
root 5.37542 15.1266 2.45857 172.849 -27.0167 -178.159
lowerback 14.3833 2.06481 -0.720207
upperback 9.48435 1.4349 -2.2704
thorax 1.99425 0.240799 -2.1628
lowerneck 10.3753 5.178 8.21859
upperneck 0.6259 7.57981 -3.96517
head -1.10648 3.81344 -3.00411
rclavicle -2.26615e-014 3.18055e-014
rhumerus -8.57085 -23.4924 -55.8583
rradius 104.046
rwrist -2.31638
rhand -48.3732 32.7631
rfingers 7.12502
rthumb -21.0269 3.88304
lclavicle -2.26615e-014 3.18055e-014
lhumerus -10.7991 27.8778 36.415
lradius 107.48
lwrist -8.75254
lhand -49.1372 9.6534
lfingers 7.12502
lthumb -21.7608 38.4502
rfemur -9.58288 3.21082 22.6287
rtibia 34.8003
rfoot -22.5176 -24.7328
rtoes -28.392
lfemur -7.66041 -6.34553 -15.8278
ltibia 33.7602
lfoot -19.4391 17.1865
ltoes -19.4178
228
root 5.37641 15.1265 2.4589 172.879 -27.1003 -178.302
lowerback 14.3654 2.07405 -0.814324
upperback 9.50463 1.43328 -2.30814
thorax 2.02346 0.235194 -2.14899
lowerneck 10.3075 5.15264 8.13873
upperneck 0.648783 7.53395 -3.88744
head -1.09573 3.78868 -2.95855
rclavicle 8.18993e-014 -3.49861e-014
rhumerus -8.72163 -23.6024 -55.8007
rradius 104.024
rwrist -2.47946
rhand -48.6906 32.0266
rfingers 7.12502
rthumb -21.3319 3.18073
lclavicle 8.18993e-014 -3.49861e-014
lhumerus -10.6672 27.8509 36.4599
lradius 107.22
lwrist -8.67171
lhand -49.1475 9.26559
lfingers 7.12502
lthumb -21.7707 38.0612
rfemur -9.55803 3.18137 22.4793
rtibia 34.8558
rfoot -22.4954 -24.7461
rtoes -28.4883
lfemur -7.58566 -6.31867 -15.9685
ltibia 33.6681
lfoot -19.5601 16.9774
ltoes -18.7747
229
root 5.37465 15.1267 2.45776 172.943 -27.2168 -178.53
lowerback 14.3155 2.06072 -0.941432
upperback 9.5302 1.39852 -2.37596
thorax 2.07413 0.212076 -2.14359
lowerneck 10.2745 5.17196 7.92649
upperneck 0.663083 7.53616 -3.70338
head -1.09894 3.78473 -2.85622
rclavicle -9.97899e-014 2.70347e-014
rhumerus -8.81181 -23.6515 -55.7488
rradius 103.973
rwrist -2.59816
rhand -48.9553 31.4463
rfingers 7.12502
rthumb -21.5861 2.62938
lclavicle -9.97899e-014 2.70347e-014
lhumerus -10.5864 27.8894 36.5181
lradius 107.038
lwrist -8.56517
lhand -48.6585 9.28597
lfingers 7.12502
lthumb -21.301 38.1354
rfemur -9.51057 3.0963 22.2267
rtibia 34.932
rfoot -22.6717 -24.5968
rtoes -28.1708
lfemur -7.46779 -6.39341 -16.2146
ltibia 33.5277
lfoot -19.617 16.8473
ltoes -18.107
230
root 5.37378 15.1281 2.45645 173.009 -27.2856 -178.685
lowerback 14.2133 2.07268 -0.997181
upperback 9.55895 1.40928 -2.42549
thorax 2.15911 0.215518 -2.16372
lowerneck 10.2547 5.17188 7.82478
upperneck 0.657855 7.5253 -3.61111
head -1.10466 3.7768 -2.8059
rclavicle 2.34566e-014 -3.57812e-014
rhumerus -8.8802 -23.7921 -55.7238
rradius 103.936
rwrist -2.73906
rhand -49.0024 31.2749
rfingers 7.12502
rthumb -21.6314 2.4632
lclavicle 2.34566e-014 -3.57812e-014
lhumerus -10.4344 27.9237 36.6588
lradius 106.961
lwrist -8.35471
lhand -47.8922 9.47243
lfingers 7.12502
lthumb -20.5648 38.4031
rfemur -9.51915 3.02538 22.0567
rtibia 35.0134
rfoot -22.7541 -24.5243
rtoes -28.2791
lfemur -7.37429 -6.4845 -16.3839
ltibia 33.3613
lfoot -19.525 16.8764
ltoes -17.9877
231
root 5.37578 15.1301 2.45631 173.109 -27.3336 -178.892
lowerback 14.105 2.12074 -1.08668
upperback 9.58257 1.46399 -2.49807
thorax 2.24301 0.239918 -2.19416
lowerneck 10.3093 5.13205 7.78975
upperneck 0.585082 7.47528 -3.52186
head -1.14561 3.74869 -2.77312
rclavicle 6.16232e-014 -1.82882e-014
rhumerus -8.96528 -23.9844 -55.7006
rradius 103.949
rwrist -2.97774
rhand -49.0148 31.0727
rfingers 7.12502
rthumb -21.6433 2.2623
lclavicle 6.16232e-014 -1.82882e-014
lhumerus -10.1727 27.8728 36.8119
lradius 106.906
lwrist -8.00756
lhand -47.0106 9.82442
lfingers 7.12502
lthumb -19.7174 38.8444
rfemur -9.55012 2.99857 21.8568
rtibia 35.0604
rfoot -22.6653 -24.6232
rtoes -28.7304
lfemur -7.31619 -6.50988 -16.5837
ltibia 33.22
lfoot -19.5057 16.855
ltoes -17.6113
232
root 5.37715 15.1297 2.45775 173.153 -27.3784 -179.069
lowerback 14.0439 2.17015 -1.11721
upperback 9.62866 1.52087 -2.56613
thorax 2.32793 0.26581 -2.25417
lowerneck 10.2772 5.09989 7.7851
upperneck 0.535813 7.43316 -3.47326
head -1.16063 3.72623 -2.7551
rclavicle -9.38264e-014 2.38542e-015
rhumerus -8.92616 -24.1438 -55.6934
rradius 103.945
rwrist -3.25666
rhand -48.8765 31.0335
rfingers 7.12502
rthumb -21.5105 2.20791
lclavicle -9.38264e-014 2.38542e-015
lhumerus -9.83807 27.7799 36.9796
lradius 106.821
lwrist -7.62195
lhand -46.9106 9.59812
lfingers 7.12502
lthumb -19.6213 38.6279
rfemur -9.50855 3.03343 21.6968
rtibia 35.0485
rfoot -22.6643 -24.6972
rtoes -28.7565
lfemur -7.23213 -6.51069 -16.7669
ltibia 33.1241
lfoot -19.4869 16.8515
ltoes -17.54
233
root 5.37714 15.1291 2.45984 173.065 -27.34 -179.001
lowerback 14.0431 2.20867 -0.940335
upperback 9.67407 1.58502 -2.57159
thorax 2.38568 0.303886 -2.36705
lowerneck 10.1038 5.1406 7.99928
upperneck 0.600488 7.49695 -3.68327
head -1.09016 3.76526 -2.85615
rclavicle -6.99722e-014 3.97569e-014
rhumerus -8.67002 -24.2805 -55.806
rradius 103.856
rwrist -3.54978
rhand -48.5247 30.9638
rfingers 7.12502
rthumb -21.1725 2.09999
lclavicle -6.99722e-014 3.97569e-014
lhumerus -9.53832 27.7264 37.1799
lradius 106.787
lwrist -7.32794
lhand -46.7846 9.52347
lfingers 7.12502
lthumb -19.5002 38.5656
rfemur -9.40668 3.1573 21.778
rtibia 34.9549
rfoot -22.7973 -24.6805
rtoes -28.1537
lfemur -7.14786 -6.47708 -16.7164
ltibia 33.093
lfoot -19.4386 16.9137
ltoes -17.8882
234
root 5.37662 15.1318 2.46189 172.968 -27.2405 -178.839
lowerback 14.0364 2.23184 -0.700945
upperback 9.69042 1.6403 -2.57641
thorax 2.41785 0.342764 -2.51308
lowerneck 9.9813 5.2141 8.33885
upperneck 0.62593 7.61978 -4.01857
head -1.02812 3.8367 -3.02731
rclavicle 6.2816e-014 0
rhumerus -8.23289 -24.3819 -56.1223
rradius 103.685
rwrist -3.88773
rhand -48.3859 30.2454
rfingers 7.12502
rthumb -21.0392 1.36672
lclavicle 6.2816e-014 0
lhumerus -9.24761 27.714 37.3259
lradius 106.724
lwrist -7.11107
lhand -46.3849 9.31843
lfingers 7.12502
lthumb -19.1158 38.399
rfemur -9.30591 3.28054 21.949
rtibia 34.7763
rfoot -22.881 -24.6285
rtoes -27.5417
lfemur -7.13195 -6.45046 -16.5602
ltibia 33.1449
lfoot -19.511 16.9366
ltoes -17.7547
